<svg xmlns="http://www.w3.org/2000/svg" width="20" height="20" viewBox="0 0 20 20">
  <path id="dashboard" d="M9.111,3H5.778a2.778,2.778,0,1,0,0,5.556H9.111A2.778,2.778,0,1,0,9.111,3Zm0,4.444H5.778a1.667,1.667,0,1,1,0-3.333H9.111a1.667,1.667,0,0,1,0,3.333Zm0,3.333H5.778A2.778,2.778,0,0,0,3,13.556v6.667A2.778,2.778,0,0,0,5.778,23H9.111a2.778,2.778,0,0,0,2.778-2.778V13.556A2.778,2.778,0,0,0,9.111,10.778Zm1.667,9.444a1.667,1.667,0,0,1-1.667,1.667H5.778a1.667,1.667,0,0,1-1.667-1.667V13.556a1.667,1.667,0,0,1,1.667-1.667H9.111a1.667,1.667,0,0,1,1.667,1.667Zm9.444-2.778H16.889a2.778,2.778,0,0,0,0,5.556h3.333a2.778,2.778,0,1,0,0-5.556Zm0,4.444H16.889a1.667,1.667,0,0,1,0-3.333h3.333a1.667,1.667,0,0,1,0,3.333ZM20.222,3H16.889a2.778,2.778,0,0,0-2.778,2.778v6.667a2.778,2.778,0,0,0,2.778,2.778h3.333A2.778,2.778,0,0,0,23,12.444V5.778A2.778,2.778,0,0,0,20.222,3Zm1.667,9.444a1.667,1.667,0,0,1-1.667,1.667H16.889a1.667,1.667,0,0,1-1.667-1.667V5.778a1.667,1.667,0,0,1,1.667-1.667h3.333a1.667,1.667,0,0,1,1.667,1.667Z" transform="translate(-3 -3)" fill="#06038d"/>
</svg>
